<?xml version="1.0" standalone="no"?>
<!DOCTYPE svg PUBLIC "-//W3C//DTD SVG 20010904//EN"
 "http://www.w3.org/TR/2001/REC-SVG-20010904/DTD/svg10.dtd">
<svg version="1.0" xmlns="http://www.w3.org/2000/svg"
 width="260.000000pt" height="260.000000pt" viewBox="0 0 260.000000 260.000000"
 preserveAspectRatio="xMidYMid meet">
<metadata>
Created by potrace 1.11, written by Peter Selinger 2001-2013
</metadata>
<g transform="translate(0.000000,260.000000) scale(0.100000,-0.100000)"
fill="#000000" stroke="none">
<path d="M1240 2139 c-147 -28 -329 -180 -407 -340 -24 -48 -61 -151 -84 -230
-40 -141 -63 -198 -100 -251 -11 -14 -19 -31 -19 -36 0 -20 59 6 117 51 l58
44 -9 -83 c-8 -71 -13 -84 -28 -84 -10 0 -18 -7 -18 -15 0 -8 7 -15 15 -15 13
0 15 -27 15 -179 0 -99 -3 -186 -6 -195 -3 -9 -17 -16 -30 -16 -22 0 -24 4
-24 45 l0 45 -50 0 -50 0 0 -50 c0 -43 3 -50 19 -50 11 0 27 10 36 23 15 22
15 21 9 -10 -6 -29 -4 -33 15 -33 11 0 21 5 21 10 0 6 12 10 26 10 19 0 24 -4
20 -17 -3 -10 -8 -36 -12 -58 l-7 -39 29 19 c16 10 37 28 46 39 31 36 96 172
103 216 7 39 9 41 34 36 19 -5 22 -4 11 3 -11 8 -14 32 -13 111 1 55 6 108 11
116 9 17 21 -21 70 -226 11 -47 24 -94 28 -104 5 -14 4 -17 -4 -12 -7 4 -12 1
-12 -9 0 -9 3 -14 8 -12 4 3 7 -29 8 -72 0 -42 -1 -66 -3 -53 -3 12 -11 22
-18 22 -18 0 -28 -34 -20 -71 6 -25 9 -28 22 -17 13 10 14 8 11 -12 -1 -14
-11 -31 -21 -38 -13 -10 -15 -17 -7 -33 6 -10 15 -19 20 -19 19 0 139 126 183
191 24 36 57 98 72 137 16 40 32 72 36 72 7 0 5 45 -5 152 -4 33 -2 37 13 28
22 -11 151 -142 151 -152 0 -4 -9 -8 -21 -8 -17 0 -19 -4 -13 -22 4 -13 10
-38 15 -56 10 -45 16 -49 39 -26 11 10 25 24 31 29 8 7 25 -3 55 -32 25 -24
49 -43 54 -43 13 0 4 39 -26 112 -13 32 -24 63 -24 70 0 7 -9 30 -19 50 -20
36 -20 36 0 41 10 3 17 1 13 -4 -3 -5 0 -9 5 -9 6 0 11 9 11 20 0 20 2 19 35
-7 20 -16 35 -37 35 -49 0 -21 17 -34 46 -34 7 0 13 8 12 18 -3 40 3 51 30 55
22 3 21 4 -9 6 -23 0 -39 7 -43 17 -3 9 -6 72 -6 140 l0 124 -35 0 -35 0 0 75
c0 61 5 85 26 126 31 62 41 56 43 -23 1 -25 5 -28 36 -28 32 0 35 2 35 30 0
20 -5 30 -15 30 -10 0 -15 11 -15 35 0 29 -4 35 -22 35 -12 0 -19 3 -15 6 3 4
39 8 79 11 65 4 164 21 225 39 17 5 27 -2 49 -36 l28 -43 14 34 c18 43 10 100
-23 175 -49 110 -86 139 -232 180 -34 10 -60 21 -57 26 3 4 -9 8 -25 8 -39 0
-42 27 -3 33 15 3 5 5 -23 5 -27 0 -83 7 -124 16 -74 16 -302 47 -331 45 -8
-1 -35 -5 -60 -10z m447 -162 c8 -9 -48 -117 -69 -131 -36 -25 -76 -20 -110
14 -27 27 -30 35 -24 70 5 34 4 40 -11 40 -15 0 -16 2 -3 10 13 9 208 6 217
-3z m90 -29 c-3 -8 -6 -5 -6 6 -1 11 2 17 5 13 3 -3 4 -12 1 -19z m6 -99 c-4
-4 -6 13 -3 39 l5 47 3 -39 c2 -21 0 -42 -5 -47z m-73 -59 c-8 -5 -19 -10 -25
-10 -5 0 -3 5 5 10 8 5 20 10 25 10 6 0 3 -5 -5 -10z m-20 -542 c0 -36 -4 -35
-14 5 -4 16 -2 27 4 27 5 0 10 -14 10 -32z m-155 -308 c3 -5 1 -10 -4 -10 -6
0 -11 5 -11 10 0 6 2 10 4 10 3 0 8 -4 11 -10z"/>
<path d="M1507 1953 c-15 -14 -6 -61 16 -81 27 -26 64 -28 95 -6 16 11 22 25
22 55 l0 39 -63 0 c-35 0 -67 -3 -70 -7z"/>
<path d="M1910 1583 c-14 -7 -31 -11 -37 -8 -9 3 -13 -7 -13 -30 0 -19 2 -35
5 -35 2 0 14 11 27 25 56 60 61 71 18 48z"/>
<path d="M1983 1549 c-25 -10 -43 -25 -43 -34 0 -14 3 -14 28 -1 38 20 68 44
62 49 -3 2 -24 -4 -47 -14z"/>
<path d="M2178 1537 c-19 -7 -28 -18 -28 -34 0 -13 5 -23 10 -23 6 0 10 -11
10 -25 0 -20 -5 -25 -25 -25 -20 0 -25 -5 -25 -25 0 -23 3 -25 50 -25 l50 0 0
85 c0 47 -3 85 -7 84 -5 -1 -20 -6 -35 -12z"/>
<path d="M1883 1508 c-14 -7 -23 -20 -23 -35 0 -27 3 -28 35 -7 14 9 25 25 25
35 0 21 -5 22 -37 7z"/>
<path d="M1985 1500 c-20 -13 -24 -20 -14 -20 18 0 71 39 54 40 -5 0 -23 -9
-40 -20z"/>
<path d="M1888 1444 c-16 -8 -28 -19 -28 -24 0 -5 13 -1 30 8 16 9 30 20 30
25 0 9 0 9 -32 -9z"/>
<path d="M1982 1432 c-2 -20 -7 -23 -41 -21 -23 2 -49 -4 -65 -14 -14 -9 -32
-17 -41 -17 -11 0 -15 -11 -15 -44 l0 -44 45 -4 45 -3 1 50 c1 29 4 38 6 23 3
-22 10 -28 29 -28 19 0 24 5 24 24 0 13 5 26 11 28 6 2 9 19 6 38 -2 20 -5 25
-5 12z"/>
<path d="M1832 1183 c18 -3 28 -12 31 -26 l4 -22 2 22 c1 16 9 23 29 26 15 2
0 4 -33 4 -33 0 -48 -2 -33 -4z"/>
<path d="M706 1094 c-10 -25 -7 -84 4 -84 6 0 10 23 10 50 0 52 -4 61 -14 34z"/>
<path d="M532 1058 c-7 -7 -12 -26 -11 -42 0 -31 0 -31 15 8 15 43 14 52 -4
34z"/>
<path d="M587 976 c-37 -13 -35 -36 3 -36 20 0 30 -5 30 -15 0 -10 11 -15 35
-15 33 0 35 2 35 34 0 32 -2 34 -38 38 -21 2 -50 -1 -65 -6z"/>
<path d="M433 913 c9 -2 25 -2 35 0 9 3 1 5 -18 5 -19 0 -27 -2 -17 -5z"/>
<path d="M1012 880 c0 -14 2 -19 5 -12 2 6 2 18 0 25 -3 6 -5 1 -5 -13z"/>
<path d="M457 850 c-21 -35 -19 -36 28 -13 40 19 47 43 12 43 -15 0 -29 -11
-40 -30z"/>
<path d="M464 766 c-16 -13 -17 -15 -3 -21 9 -3 15 -16 14 -33 -2 -19 -1 -20
2 -4 4 19 11 22 49 22 40 0 44 2 44 25 0 23 -4 25 -43 25 -24 0 -52 -6 -63
-14z"/>
<path d="M652 728 c-9 -19 -13 -78 -5 -78 6 0 63 84 63 92 0 18 -47 7 -58 -14z"/>
<path d="M603 645 c3 -45 15 -45 15 0 0 19 -4 35 -9 35 -5 0 -8 -16 -6 -35z"/>
<path d="M344 545 c-12 -30 2 -35 25 -11 l24 26 -22 0 c-12 0 -24 -7 -27 -15z"/>
<path d="M287 483 c-15 -25 -27 -49 -25 -54 5 -16 59 61 56 80 -2 14 -10 8
-31 -26z"/>
</g>
</svg>
